<?xml version="1.0" standalone="no"?>
<!DOCTYPE svg PUBLIC "-//W3C//DTD SVG 20010904//EN"
 "http://www.w3.org/TR/2001/REC-SVG-20010904/DTD/svg10.dtd">
<svg version="1.0" xmlns="http://www.w3.org/2000/svg"
 width="80.000000pt" height="80.000000pt" viewBox="0 0 80.000000 80.000000"
 preserveAspectRatio="xMidYMid meet">

<g transform="translate(0.000000,80.000000) scale(0.100000,-0.100000)"
fill="#000000" stroke="none">
<path d="M495 718 c-7 -17 -18 -23 -40 -23 -26 0 -30 -3 -30 -29 0 -18 -7 -33
-20 -40 -11 -6 -22 -12 -24 -14 -2 -1 2 -13 9 -27 11 -21 11 -29 0 -50 -7 -14
-11 -26 -9 -27 2 -2 13 -8 24 -14 13 -7 20 -22 20 -40 0 -25 4 -29 29 -29 18
0 33 -7 40 -20 6 -11 12 -22 14 -24 1 -2 13 2 27 9 21 11 29 11 50 0 14 -7 26
-11 27 -9 2 2 8 13 14 24 7 13 22 20 40 20 25 0 29 4 29 29 0 18 7 33 20 40
11 6 22 12 24 14 2 1 -2 13 -9 27 -11 21 -11 29 0 50 7 14 11 26 9 27 -2 2
-13 8 -24 14 -13 7 -20 22 -20 40 0 25 -4 29 -29 29 -18 0 -33 7 -40 20 -6 11
-12 22 -14 24 -1 2 -14 -2 -28 -9 -20 -11 -29 -12 -44 -2 -27 17 -34 15 -45
-10z m127 -30 c10 -10 25 -18 33 -18 8 0 15 -7 15 -15 0 -8 8 -23 18 -32 11
-12 17 -33 17 -63 0 -30 -6 -51 -17 -62 -10 -10 -18 -25 -18 -33 0 -8 -7 -15
-15 -15 -8 0 -23 -8 -32 -17 -12 -12 -33 -18 -63 -18 -30 0 -51 6 -62 18 -10
9 -25 17 -33 17 -8 0 -15 7 -15 15 0 8 -8 23 -17 33 -12 11 -18 32 -18 62 0
30 6 51 18 63 9 9 17 23 17 31 0 8 11 17 25 20 14 4 28 12 31 19 7 20 95 15
116 -5z"/>
<path d="M550 650 c0 -5 5 -10 10 -10 6 0 10 5 10 10 0 6 -4 10 -10 10 -5 0
-10 -4 -10 -10z"/>
<path d="M530 585 c-15 -18 -10 -45 13 -59 34 -22 73 27 47 59 -16 19 -44 19
-60 0z m46 -16 c10 -17 -13 -36 -27 -22 -12 12 -4 33 11 33 5 0 12 -5 16 -11z"/>
<path d="M460 560 c0 -5 5 -10 10 -10 6 0 10 5 10 10 0 6 -4 10 -10 10 -5 0
-10 -4 -10 -10z"/>
<path d="M640 560 c0 -5 5 -10 10 -10 6 0 10 5 10 10 0 6 -4 10 -10 10 -5 0
-10 -4 -10 -10z"/>
<path d="M550 470 c0 -5 5 -10 10 -10 6 0 10 5 10 10 0 6 -4 10 -10 10 -5 0
-10 -4 -10 -10z"/>
<path d="M237 450 c-19 -22 -47 -26 -65 -8 -9 9 -13 7 -17 -8 -14 -44 -25 -55
-69 -69 -15 -4 -17 -8 -8 -17 18 -18 14 -45 -10 -68 l-22 -20 22 -20 c24 -23
28 -50 10 -68 -9 -9 -7 -13 8 -17 44 -14 55 -25 69 -69 4 -15 8 -17 17 -8 18
18 45 14 68 -10 l20 -22 20 22 c23 24 50 28 68 10 9 -9 13 -7 17 8 14 44 25
55 69 69 15 4 17 8 8 17 -18 18 -14 45 10 68 l22 20 -22 20 c-24 23 -28 50
-10 68 9 9 7 13 -8 17 -44 14 -55 25 -69 69 -4 15 -8 17 -17 8 -18 -18 -46
-14 -65 8 -10 11 -20 20 -23 20 -3 0 -13 -9 -23 -20z m76 -37 c39 -8 90 -63
103 -112 32 -118 -79 -229 -197 -197 -120 32 -160 183 -73 270 32 32 96 57
124 49 8 -2 28 -7 43 -10z"/>
<path d="M250 380 c0 -5 5 -10 10 -10 6 0 10 5 10 10 0 6 -4 10 -10 10 -5 0
-10 -4 -10 -10z"/>
<path d="M220 300 c-11 -11 -20 -29 -20 -40 0 -26 34 -60 60 -60 26 0 60 34
60 60 0 11 -9 29 -20 40 -11 11 -29 20 -40 20 -11 0 -29 -9 -40 -20z m70 -15
c26 -32 -13 -81 -47 -59 -23 14 -28 41 -13 59 16 19 44 19 60 0z"/>
<path d="M130 260 c0 -5 5 -10 10 -10 6 0 10 5 10 10 0 6 -4 10 -10 10 -5 0
-10 -4 -10 -10z"/>
<path d="M370 260 c0 -5 5 -10 10 -10 6 0 10 5 10 10 0 6 -4 10 -10 10 -5 0
-10 -4 -10 -10z"/>
<path d="M250 140 c0 -5 5 -10 10 -10 6 0 10 5 10 10 0 6 -4 10 -10 10 -5 0
-10 -4 -10 -10z"/>
</g>
</svg>
